<svg xmlns="http://www.w3.org/2000/svg" xmlns:xlink="http://www.w3.org/1999/xlink" xmlns:inkscape="http://www.inkscape.org/namespaces/inkscape" version="1.1" width="573.177" height="535.703" viewBox="0 0 573.177 535.703">
<defs>
<clipPath id="clip_1">
<path transform="matrix(1,0,0,-1,0,535.703)" d="M0 535.703H573.177V0H0Z"/>
</clipPath>
</defs>

<g clip-path="url(#clip_1)">
<path transform="matrix(1,0,0,-1,354.104,293.0621)" d="M0 0C-.506 0-.916 .389-.916 .869-.916 35.977-31.02 64.538-68.022 64.538-105.025 64.538-135.129 35.977-135.129 .869-135.129 .389-135.539 0-136.045 0-136.552 0-136.961 .389-136.961 .869-136.961 36.935-106.036 66.277-68.022 66.277-30.009 66.277 .916 36.935 .916 .869 .916 .389 .506 0 0 0" fill="#e3d4bb"/>
<path transform="matrix(1,0,0,-1,453.3176,293.0621)" d="M0 0H-145.099C-158.552 0-169.499 10.386-169.499 23.151-169.499 33.459-160.66 41.846-149.796 41.846-141.001 41.846-133.848 35.059-133.848 26.716-133.848 19.946-139.654 14.439-146.79 14.439-152.599 14.439-157.325 18.923-157.325 24.435-157.325 24.915-156.915 25.304-156.409 25.304-155.902 25.304-155.493 24.915-155.493 24.435-155.493 19.881-151.588 16.177-146.79 16.177-140.663 16.177-135.68 20.905-135.68 26.716-135.68 34.1-142.012 40.108-149.796 40.108-159.649 40.108-167.667 32.501-167.667 23.151-167.667 11.344-157.543 1.738-145.099 1.738H0C.506 1.738 .916 1.35 .916 .869 .916 .389 .506 0 0 0" fill="#e3d4bb"/>
<path transform="matrix(1,0,0,-1,237.9445,293.0621)" d="M0 0H-118.085C-118.591 0-119.001 .389-119.001 .869-119.001 1.35-118.591 1.738-118.085 1.738H0C.506 1.738 .916 1.35 .916 .869 .916 .389 .506 0 0 0" fill="#e3d4bb"/>
<path transform="matrix(1,0,0,-1,261.6108,311.80073)" d="M0 0H-88.732C-89.239 0-89.648 .389-89.648 .869-89.648 1.35-89.239 1.738-88.732 1.738H0C9.08 1.738 16.466 8.747 16.466 17.361 16.466 24.156 10.639 29.685 3.476 29.685-2.152 29.685-6.733 25.341-6.733 20-6.733 15.823-3.151 12.425 1.251 12.425 4.672 12.425 7.454 15.066 7.454 18.311 7.454 18.791 7.864 19.18 8.37 19.18 8.876 19.18 9.286 18.791 9.286 18.311 9.286 14.107 5.681 10.687 1.251 10.687-4.162 10.687-8.565 14.865-8.565 20-8.565 26.299-3.163 31.424 3.476 31.424 11.65 31.424 18.299 25.116 18.299 17.361 18.299 7.789 10.089 0 0 0" fill="#e3d4bb"/>
<path transform="matrix(1,0,0,-1,351.676,311.80073)" d="M0 0H-90.065C-90.572 0-90.981 .389-90.981 .869-90.981 1.35-90.572 1.738-90.065 1.738H0C.506 1.738 .916 1.35 .916 .869 .916 .389 .506 0 0 0" fill="#e3d4bb"/>
<path transform="matrix(1,0,0,-1,402.7929,311.80073)" d="M0 0H-30.9C-31.407 0-31.816 .389-31.816 .869-31.816 1.35-31.407 1.738-30.9 1.738H0C.506 1.738 .916 1.35 .916 .869 .916 .389 .506 0 0 0" fill="#e3d4bb"/>
<path transform="matrix(1,0,0,-1,286.0822,216.741)" d="M0 0C-.506 0-.916 .389-.916 .869V10.091C-.916 10.572-.506 10.96 0 10.96 .506 10.96 .916 10.572 .916 10.091V.869C.916 .389 .506 0 0 0" fill="#e3d4bb"/>
<path transform="matrix(1,0,0,-1,286.0822,186.53879)" d="M0 0C-.506 0-.916 .389-.916 .869V32.339C-.916 32.819-.506 33.208 0 33.208 .506 33.208 .916 32.819 .916 32.339V.869C.916 .389 .506 0 0 0" fill="#e3d4bb"/>
<path transform="matrix(1,0,0,-1,271.9348,217.9158)" d="M0 0C-.435 0-.821 .296-.9 .718L-15.795 80.867C-15.883 81.34-15.551 81.791-15.053 81.874-14.566 81.958-14.081 81.643-13.992 81.169L.904 1.02C.991 .548 .658 .097 .161 .014 .107 .004 .053 0 0 0" fill="#e3d4bb"/>
<path transform="matrix(1,0,0,-1,258.222,221.4025)" d="M0 0C-.374 0-.725 .219-.861 .572L-4.185 9.239C-4.359 9.69-4.113 10.189-3.638 10.353-3.158 10.518-2.637 10.284-2.464 9.833L.861 1.166C1.034 .715 .789 .216 .313 .052 .209 .017 .104 0 0 0" fill="#e3d4bb"/>
<path transform="matrix(1,0,0,-1,247.3344,193.0209)" d="M0 0C-.374 0-.725 .219-.861 .572L-12.204 30.144C-12.378 30.594-12.133 31.094-11.657 31.257-11.177 31.42-10.657 31.189-10.483 30.738L.861 1.166C1.034 .716 .789 .216 .313 .053 .209 .017 .104 0 0 0" fill="#e3d4bb"/>
<path transform="matrix(1,0,0,-1,245.3537,227.09549)" d="M0 0C-.315 0-.624 .155-.793 .435L-43.683 70.916C-43.937 71.332-43.786 71.863-43.348 72.104-42.91 72.343-42.35 72.204-42.097 71.785L.793 1.304C1.047 .888 .896 .357 .458 .116 .313 .037 .156 0 0 0" fill="#e3d4bb"/>
<path transform="matrix(1,0,0,-1,233.7236,234.8219)" d="M0 0C-.261 0-.521 .105-.701 .311L-6.949 7.375C-7.275 7.743-7.225 8.291-6.837 8.599-6.45 8.909-5.871 8.861-5.547 8.492L.701 1.428C1.027 1.06 .977 .512 .589 .204 .417 .067 .208 0 0 0" fill="#e3d4bb"/>
<path transform="matrix(1,0,0,-1,213.2599,211.6857)" d="M0 0C-.261 0-.521 .105-.701 .311L-22.022 24.418C-22.348 24.785-22.298 25.334-21.909 25.642-21.521 25.951-20.945 25.904-20.619 25.535L.702 1.428C1.027 1.06 .977 .512 .589 .204 .417 .067 .208 0 0 0" fill="#e3d4bb"/>
<path transform="matrix(1,0,0,-1,223.6823,244.34781)" d="M0 0C-.208 0-.417 .067-.589 .204L-66.299 52.517C-66.687 52.825-66.737 53.373-66.411 53.741-66.086 54.11-65.508 54.156-65.121 53.848L.589 1.535C.977 1.227 1.027 .678 .701 .311 .521 .105 .261 0 0 0" fill="#e3d4bb"/>
<path transform="matrix(1,0,0,-1,215.5396,255.38282)" d="M0 0C-.156 0-.313 .037-.458 .116L-8.876 4.728C-9.315 4.968-9.465 5.499-9.211 5.915-8.959 6.332-8.395 6.471-7.96 6.233L.458 1.622C.896 1.382 1.047 .851 .793 .435 .624 .155 .315 0 0 0" fill="#e3d4bb"/>
<path transform="matrix(1,0,0,-1,187.9708,240.28119)" d="M0 0C-.156 0-.313 .037-.458 .116L-29.184 15.851C-29.623 16.091-29.773 16.623-29.519 17.039-29.267 17.454-28.703 17.595-28.268 17.357L.458 1.622C.897 1.382 1.047 .851 .793 .435 .624 .156 .315 0 0 0" fill="#e3d4bb"/>
<path transform="matrix(1,0,0,-1,209.5384,267.5916)" d="M0 0C-.104 0-.209 .017-.313 .052L-80.92 27.888C-81.396 28.051-81.641 28.551-81.468 29.001-81.294 29.453-80.772 29.684-80.294 29.521L.313 1.686C.789 1.522 1.034 1.023 .861 .572 .725 .219 .374 0 0 0" fill="#e3d4bb"/>
<path transform="matrix(1,0,0,-1,205.8651,280.6036)" d="M0 0C-.054 0-.107 .004-.161 .014L-9.733 1.614C-10.231 1.698-10.564 2.148-10.476 2.621-10.388 3.095-9.903 3.412-9.415 3.326L.157 1.725C.655 1.641 .988 1.191 .9 .718 .821 .296 .435 0 0 0" fill="#e3d4bb"/>
<path transform="matrix(1,0,0,-1,174.5158,275.35893)" d="M0 0C-.054 0-.107 .004-.161 .014L-32.827 5.478C-33.325 5.561-33.658 6.012-33.57 6.485-33.48 6.958-33.001 7.274-32.509 7.189L.157 1.725C.655 1.641 .988 1.191 .9 .718 .821 .296 .435 0 0 0" fill="#e3d4bb"/>
<path transform="matrix(1,0,0,-1,366.2978,280.6036)" d="M0 0C-.435 0-.821 .296-.9 .718-.988 1.191-.655 1.641-.158 1.725L9.417 3.326C9.907 3.413 10.39 3.095 10.478 2.621 10.565 2.148 10.233 1.698 9.735 1.614L.161 .014C.107 .004 .054 0 0 0" fill="#e3d4bb"/>
<path transform="matrix(1,0,0,-1,397.6488,275.35893)" d="M0 0C-.435 0-.821 .296-.9 .718-.988 1.191-.655 1.641-.157 1.725L32.507 7.189C32.994 7.275 33.479 6.958 33.568 6.485 33.656 6.012 33.323 5.561 32.825 5.478L.161 .014C.107 .004 .054 0 0 0" fill="#e3d4bb"/>
<path transform="matrix(1,0,0,-1,362.6262,267.5916)" d="M0 0C-.374 0-.725 .219-.861 .572-1.034 1.023-.789 1.522-.313 1.686L80.292 29.521C80.77 29.684 81.293 29.453 81.466 29.001 81.64 28.551 81.395 28.051 80.919 27.888L.313 .052C.209 .017 .104 0 0 0" fill="#e3d4bb"/>
<path transform="matrix(1,0,0,-1,356.6251,255.38282)" d="M0 0C-.315 0-.624 .155-.793 .435-1.047 .851-.896 1.382-.458 1.622L7.96 6.233C8.399 6.474 8.959 6.334 9.211 5.915 9.465 5.499 9.315 4.968 8.876 4.728L.458 .116C.313 .037 .156 0 0 0" fill="#e3d4bb"/>
<path transform="matrix(1,0,0,-1,384.1938,240.28119)" d="M0 0C-.315 0-.625 .155-.793 .435-1.047 .851-.896 1.382-.458 1.622L28.266 17.357C28.703 17.598 29.265 17.456 29.517 17.039 29.771 16.623 29.621 16.091 29.183 15.851L.458 .116C.313 .037 .156 0 0 0" fill="#e3d4bb"/>
<path transform="matrix(1,0,0,-1,348.4805,244.34781)" d="M0 0C-.261 0-.521 .105-.701 .311-1.027 .678-.977 1.227-.589 1.535L65.123 53.848C65.51 54.158 66.089 54.111 66.413 53.741 66.739 53.373 66.689 52.825 66.3 52.517L.589 .204C.417 .067 .208 0 0 0" fill="#e3d4bb"/>
<path transform="matrix(1,0,0,-1,338.441,234.8219)" d="M0 0C-.208 0-.417 .067-.589 .204-.977 .512-1.027 1.06-.701 1.428L5.547 8.492C5.872 8.86 6.45 8.906 6.837 8.599 7.225 8.291 7.275 7.743 6.949 7.375L.701 .311C.521 .105 .261 0 0 0" fill="#e3d4bb"/>
<path transform="matrix(1,0,0,-1,358.9027,211.6857)" d="M0 0C-.207 0-.417 .067-.589 .204-.977 .512-1.027 1.06-.701 1.428L20.619 25.535C20.945 25.903 21.523 25.949 21.909 25.642 22.298 25.334 22.348 24.785 22.022 24.418L.702 .311C.521 .105 .261 0 0 0" fill="#e3d4bb"/>
<path transform="matrix(1,0,0,-1,326.809,227.09549)" d="M0 0C-.156 0-.313 .037-.458 .116-.896 .357-1.047 .888-.793 1.304L42.097 71.785C42.35 72.203 42.911 72.34 43.348 72.104 43.786 71.863 43.937 71.332 43.683 70.916L.793 .435C.625 .155 .315 0 0 0" fill="#e3d4bb"/>
<path transform="matrix(1,0,0,-1,313.9408,221.4025)" d="M0 0C-.104 0-.209 .017-.313 .052-.789 .216-1.034 .715-.861 1.166L2.464 9.833C2.637 10.284 3.163 10.517 3.638 10.353 4.113 10.189 4.359 9.69 4.185 9.239L.861 .572C.725 .219 .374 0 0 0" fill="#e3d4bb"/>
<path transform="matrix(1,0,0,-1,324.8284,193.0209)" d="M0 0C-.104 0-.209 .017-.313 .053-.789 .216-1.034 .716-.861 1.166L10.485 30.738C10.659 31.189 11.183 31.419 11.659 31.257 12.135 31.094 12.38 30.594 12.206 30.144L.861 .572C.725 .219 .374 0 0 0" fill="#e3d4bb"/>
<path transform="matrix(1,0,0,-1,300.228,217.9158)" d="M0 0C-.054 0-.107 .004-.161 .014-.658 .097-.991 .548-.903 1.02L13.992 81.169C14.08 81.643 14.561 81.957 15.053 81.874 15.55 81.791 15.883 81.34 15.795 80.867L.9 .718C.821 .296 .435 0 0 0" fill="#e3d4bb"/>
<path transform="matrix(1,0,0,-1,156.0003,387.8706)" d="M0 0V-3.947H4.895V-5.747H0V-9.868H5.507V-11.668H-2.325V1.8H5.507V0Z" fill="#e3d4bb"/>
<path transform="matrix(1,0,0,-1,170.5413,399.1997)" d="M0 0C-.761 .316-1.359 .764-1.794 1.345-2.229 1.926-2.447 2.603-2.447 3.377H.041C.096 2.796 .337 2.318 .766 1.944 1.193 1.57 1.795 1.383 2.57 1.383 3.372 1.383 3.998 1.566 4.446 1.935 4.896 2.303 5.119 2.776 5.119 3.357 5.119 3.809 4.979 4.176 4.701 4.46 4.423 4.744 4.076 4.963 3.661 5.117 3.246 5.272 2.672 5.439 1.937 5.621 1.013 5.854 .262 6.088-.315 6.327-.894 6.566-1.387 6.937-1.794 7.439-2.202 7.943-2.406 8.613-2.406 9.452-2.406 10.227-2.202 10.903-1.794 11.484-1.387 12.064-.815 12.51-.081 12.819 .653 13.129 1.503 13.283 2.468 13.283 3.842 13.283 4.967 12.957 5.844 12.307 6.721 11.654 7.206 10.762 7.302 9.627H4.732C4.691 10.117 4.446 10.535 3.998 10.885 3.549 11.232 2.958 11.406 2.224 11.406 1.557 11.406 1.013 11.245 .592 10.923 .17 10.6-.04 10.136-.04 9.529-.04 9.117 .092 8.777 .357 8.514 .622 8.249 .959 8.039 1.367 7.885 1.774 7.73 2.332 7.562 3.039 7.382 3.978 7.137 4.742 6.892 5.334 6.646 5.925 6.401 6.428 6.023 6.843 5.515 7.258 5.005 7.465 4.324 7.465 3.473 7.465 2.789 7.271 2.145 6.884 1.538 6.496 .932 5.932 .445 5.191 .077 4.449-.291 3.576-.475 2.57-.475 1.618-.475 .762-.316 0 0" fill="#e3d4bb"/>
<path transform="matrix(1,0,0,-1,193.9954,386.0904)" d="M0 0V-1.8H-3.772V-13.448H-6.098V-1.8H-9.892V0Z" fill="#e3d4bb"/>
<path transform="matrix(1,0,0,-1,202.7239,386.0904)" d="M0 0V-8.572C0-9.592 .282-10.359 .847-10.875 1.411-11.391 2.196-11.648 3.202-11.648 4.222-11.648 5.014-11.391 5.578-10.875 6.143-10.359 6.425-9.592 6.425-8.572V0H8.75V-8.533C8.75-9.63 8.498-10.559 7.995-11.32 7.492-12.081 6.819-12.648 5.976-13.022 5.133-13.396 4.201-13.584 3.182-13.584 2.162-13.584 1.234-13.396 .398-13.022-.438-12.648-1.101-12.081-1.591-11.32-2.08-10.559-2.325-9.63-2.325-8.533V0Z" fill="#e3d4bb"/>
<path transform="matrix(1,0,0,-1,227.014,396.4615)" d="M0 0C.884 .852 1.326 2.051 1.326 3.599 1.326 5.159 .884 6.379 0 7.256-.884 8.133-2.154 8.571-3.813 8.571H-6.118V-1.277H-3.813C-2.154-1.277-.884-.852 0 0M.153 9.549C1.288 9 2.166 8.213 2.784 7.187 3.403 6.162 3.712 4.966 3.712 3.599 3.712 2.23 3.403 1.045 2.784 .038 2.166-.968 1.288-1.738 .153-2.273-.982-2.81-2.304-3.077-3.813-3.077H-8.443V10.371H-3.813C-2.304 10.371-.982 10.097 .153 9.549" fill="#e3d4bb"/>
<path transform="matrix(1,0,0,-1,0,535.703)" d="M239.435 136.164H237.11V149.612H239.435Z" fill="#e3d4bb"/>
<path transform="matrix(1,0,0,-1,255.5472,397.149)" d="M0 0C.734 .406 1.309 .986 1.724 1.742 2.139 2.496 2.346 3.37 2.346 4.363 2.346 5.356 2.139 6.228 1.724 6.976 1.309 7.724 .734 8.298 0 8.697-.733 9.098-1.57 9.298-2.508 9.298-3.446 9.298-4.282 9.098-5.017 8.697-5.751 8.298-6.325 7.724-6.74 6.976-7.155 6.228-7.362 5.356-7.362 4.363-7.362 3.37-7.155 2.496-6.74 1.742-6.325 .986-5.751 .406-5.017 0-4.282-.406-3.446-.609-2.508-.609-1.57-.609-.733-.406 0 0M-6.148-1.645C-7.257-1.058-8.134-.238-8.779 .812-9.426 1.864-9.748 3.048-9.748 4.363-9.748 5.68-9.426 6.859-8.779 7.904-8.134 8.949-7.257 9.766-6.148 10.353-5.041 10.939-3.827 11.232-2.508 11.232-1.176 11.232 .045 10.939 1.152 10.353 2.261 9.766 3.135 8.949 3.773 7.904 4.412 6.859 4.732 5.68 4.732 4.363 4.732 3.048 4.412 1.864 3.773 .812 3.135-.238 2.261-1.058 1.152-1.645 .045-2.232-1.176-2.525-2.508-2.525-3.827-2.525-5.041-2.232-6.148-1.645" fill="#e3d4bb"/>
<path transform="matrix(1,0,0,-1,284.4661,396.4615)" d="M0 0C.884 .852 1.326 2.051 1.326 3.599 1.326 5.159 .884 6.379 0 7.256-.884 8.133-2.154 8.571-3.813 8.571H-6.118V-1.277H-3.813C-2.154-1.277-.884-.852 0 0M.153 9.549C1.288 9 2.166 8.213 2.784 7.187 3.403 6.162 3.712 4.966 3.712 3.599 3.712 2.23 3.403 1.045 2.784 .038 2.166-.968 1.288-1.738 .153-2.273-.982-2.81-2.304-3.077-3.813-3.077H-8.443V10.371H-3.813C-2.304 10.371-.982 10.097 .153 9.549" fill="#e3d4bb"/>
<path transform="matrix(1,0,0,-1,296.887,387.8706)" d="M0 0V-3.947H4.895V-5.747H0V-9.868H5.507V-11.668H-2.325V1.8H5.507V0Z" fill="#e3d4bb"/>
<path transform="matrix(1,0,0,-1,325.5823,391.7115)" d="M0 0C.436 .381 .653 .919 .653 1.615 .653 3.086-.224 3.821-1.978 3.821H-4.548V-.57H-1.978C-1.095-.57-.435-.381 0 0M2.529-.319C2.189-.926 1.646-1.42 .897-1.8 .149-2.18-.809-2.371-1.978-2.371H-4.548V-7.827H-6.873V5.621H-1.978C-.891 5.621 .031 5.443 .785 5.089 1.54 4.734 2.104 4.254 2.479 3.647 2.853 3.041 3.039 2.363 3.039 1.615 3.039 .932 2.869 .287 2.529-.319" fill="#e3d4bb"/>
<path transform="matrix(1,0,0,-1,0,535.703)" d="M337.248 136.164H334.92298V149.612H337.248Z" fill="#e3d4bb"/>
<path transform="matrix(1,0,0,-1,346.7112,397.7583)" d="M0 0H4.793V-1.78H-2.325V11.668H0Z" fill="#e3d4bb"/>
<path transform="matrix(1,0,0,-1,365.4134,394.99079)" d="M0 0-2.305 6.25-4.63 0ZM.652-1.801H-5.282L-6.303-4.548H-8.729L-3.651 8.92H-.959L4.119-4.548H1.672Z" fill="#e3d4bb"/>
<path transform="matrix(1,0,0,-1,384.972,386.0904)" d="M0 0V-1.8H-3.772V-13.448H-6.098V-1.8H-9.892V0Z" fill="#e3d4bb"/>
<path transform="matrix(1,0,0,-1,393.721,387.8706)" d="M0 0V-3.947H4.895V-5.747H0V-9.868H5.507V-11.668H-2.325V1.8H5.507V0Z" fill="#e3d4bb"/>
<path transform="matrix(1,0,0,-1,408.262,399.1997)" d="M0 0C-.761 .316-1.359 .764-1.794 1.345-2.229 1.926-2.447 2.603-2.447 3.377H.041C.096 2.796 .337 2.318 .766 1.944 1.193 1.57 1.795 1.383 2.57 1.383 3.372 1.383 3.998 1.566 4.446 1.935 4.896 2.303 5.119 2.776 5.119 3.357 5.119 3.809 4.979 4.176 4.701 4.46 4.423 4.744 4.076 4.963 3.661 5.117 3.246 5.272 2.672 5.439 1.937 5.621 1.013 5.854 .262 6.088-.315 6.327-.894 6.566-1.387 6.937-1.794 7.439-2.202 7.943-2.406 8.613-2.406 9.452-2.406 10.227-2.202 10.903-1.794 11.484-1.387 12.064-.815 12.51-.081 12.819 .653 13.129 1.503 13.283 2.468 13.283 3.842 13.283 4.967 12.957 5.844 12.307 6.721 11.654 7.206 10.762 7.302 9.627H4.732C4.691 10.117 4.446 10.535 3.998 10.885 3.549 11.232 2.958 11.406 2.224 11.406 1.557 11.406 1.013 11.245 .592 10.923 .17 10.6-.04 10.136-.04 9.529-.04 9.117 .092 8.777 .357 8.514 .622 8.249 .959 8.039 1.367 7.885 1.774 7.73 2.332 7.562 3.039 7.382 3.978 7.137 4.742 6.892 5.334 6.646 5.925 6.401 6.428 6.023 6.843 5.515 7.258 5.005 7.465 4.324 7.465 3.473 7.465 2.789 7.271 2.145 6.884 1.538 6.496 .932 5.932 .445 5.191 .077 4.449-.291 3.576-.475 2.57-.475 1.618-.475 .762-.316 0 0" fill="#e3d4bb"/>
<path transform="matrix(1,0,0,-1,160.1282,364.2896)" d="M0 0 2.285 3.107C5.62 .827 9.557-.663 14.873-.686 19.771-.706 22.17 1.211 22.181 3.535 22.19 5.631 21.062 7.109 13.184 8.672 5.604 10.178 1.852 12.631 1.871 16.768 1.892 21.187 6.029 24.57 13.975 24.537 18.396 24.519 22.809 22.856 25.666 20.975L23.264 17.98C20.583 19.749 17.244 20.896 13.54 20.912 8.642 20.933 6.841 19.07 6.831 16.973 6.819 14.593 9.323 13.563 15.292 12.348 24.899 10.323 27.218 8.047 27.198 3.797 27.178-.68 22.562-4.401 14.258-4.366 8.583-4.343 3.514-2.338 0 0" fill="#e3d4bb"/>
<path transform="matrix(1,0,0,-1,220.4476,354.4546)" d="M0 0C.029 6.347-3.654 10.612-9.21 10.636-14.766 10.659-18.489 6.425-18.519 .077-18.548-6.212-14.863-10.421-9.308-10.444-3.752-10.468-.029-6.29 0 0M-23.597 .099C-23.554 9.336-16.838 14.579-9.191 14.546-1.545 14.515 5.121 9.216 5.078-.021 5.035-9.146-1.68-14.388-9.326-14.355-16.973-14.323-23.64-9.024-23.597 .099" fill="#e3d4bb"/>
<path transform="matrix(1,0,0,-1,245.2737,359.0357)" d="M0 0 .128 27.314-10.146 27.357-10.129 31.155 5.104 31.092 4.958-.361C4.939-4.328 7.201-6.037 10.666-6.052 12.339-6.059 14.132-5.67 16.108-4.828L17.346-8.347C14.653-9.412 12.738-9.971 9.572-9.957 3.359-9.932-.03-6.518 0 0" fill="#e3d4bb"/>
<path transform="matrix(1,0,0,-1,293.7689,361.2789)" d="M0 0 .033 7.14C-12.396 6.285-16.171 3.978-16.187 .351-16.202-2.766-13.222-4.025-9.876-4.04-6.59-4.054-3.357-2.593 0 0M-21.088 .032C-21.059 6.208-14.952 9.187 .047 10.257-.114 13.997-2.012 17.18-7.627 17.203-11.391 17.219-15.102 15.534-17.797 13.958L-19.754 17.141C-16.758 18.941-11.85 21.074-6.771 21.054 1.174 21.02 5.034 16.526 5.003 9.669L4.924-7.218 .803-7.201 .402-3.459 .223-3.458C-2.954-5.825-7.146-7.848-11.208-7.831-16.644-7.808-21.11-4.899-21.088 .032" fill="#e3d4bb"/>
<path transform="matrix(1,0,0,-1,313.9905,341.0191)" d="M0 0 4.122-.018 4.568-6.536 4.688-6.537C7.756-2.073 12.309 .628 17.686 .606 19.836 .597 21.626 .306 23.414-.552L22.261-4.571C20.232-3.938 19.159-3.651 16.89-3.642 12.528-3.623 8.396-5.702 4.904-11.468L4.829-27.562-.129-27.542Z" fill="#e3d4bb"/>
<path transform="matrix(1,0,0,-1,359.5501,331.8023)" d="M0 0C.011 2.153 1.69 3.62 3.961 3.61 6.23 3.601 7.896 2.12 7.886-.033 7.876-2.243 6.196-3.653 3.927-3.644 1.656-3.634-.01-2.21 0 0M1.91-13.213-11.531-13.157-11.513-9.36 6.887-9.437 6.758-36.979 1.8-36.958Z" fill="#e3d4bb"/>
<path transform="matrix(1,0,0,-1,405.7659,361.7486)" d="M0 0 .033 7.141C-12.396 6.285-16.171 3.978-16.187 .352-16.202-2.766-13.222-4.025-9.876-4.039-6.59-4.053-3.357-2.593 0 0M-21.088 .031C-21.059 6.209-14.952 9.187 .047 10.257-.114 13.998-2.012 17.18-7.627 17.203-11.391 17.219-15.102 15.534-17.797 13.959L-19.754 17.141C-16.758 18.941-11.85 21.074-6.771 21.053 1.173 21.02 5.034 16.526 5.003 9.67L4.924-7.219 .802-7.201 .401-3.459 .223-3.458C-2.954-5.825-7.146-7.848-11.208-7.83-16.644-7.809-21.11-4.898-21.088 .031" fill="#e3d4bb"/>
</g>
</svg>
